# Blender v2.91.2 OBJ File: 'untitled.blend'
# www.blender.org
mtllib untitled.mtl
o Plane
v -0.441536 -0.247869 0.749136
v -0.505964 0.486163 2.573688
v -1.597740 1.041026 -0.358156
v -1.992368 1.620758 0.875406
v -0.505964 0.486163 2.573688
v -1.992368 1.620758 0.875406
v -0.741945 0.546425 2.851426
v -0.507720 1.254625 1.949186
v -0.620593 1.407385 -1.990288
v -0.944032 1.975860 -0.810817
v 0.495821 -0.697882 1.115046
v -1.155081 0.096346 -0.186717
v -0.287204 -1.118333 0.657000
v 0.487595 0.170006 2.783207
v -1.459483 3.042078 -0.158764
v -0.740186 1.916433 1.212475
v -0.987578 1.021415 -0.893276
v -0.315489 1.495261 1.425207
v -0.315489 1.495261 1.425207
v -0.592252 0.931198 2.377063
v 0.007050 -0.039033 0.393234
v -0.386049 -0.194886 0.736771
v -1.565626 1.078243 -0.365947
v -0.621833 1.411785 -1.982209
v -0.281584 -1.110196 0.671771
v -0.987064 1.032958 -0.892223
v -0.505964 0.486163 2.573688
v 0.487595 0.170006 2.783207
v -1.992368 1.620758 0.875406
v -0.944032 1.975860 -0.810817
v -0.315489 1.495261 1.425207
v -0.392213 0.473899 0.094695
v 0.268177 -0.354601 0.747111
v -0.237749 1.292475 1.842560
v -0.302203 1.203482 1.979617
v -1.271084 0.162787 2.940856
v -0.398222 0.473117 0.103325
v -0.224347 1.313511 1.768924
v -0.990265 2.070877 -0.069913
v -0.714271 1.745477 -1.406690
v 0.124784 1.511647 0.998399
v 0.059476 0.543208 1.375617
v 0.132949 0.185121 1.538275
v -0.210488 0.948457 1.051678
v 0.103885 0.752106 1.803705
v -0.488735 -0.401564 2.408513
v -1.117346 2.198212 0.237976
v -0.752916 1.927862 -1.135119
v -0.148392 1.605911 1.173937
v -0.414239 2.138812 0.679174
v -0.414239 2.138812 0.679174
v -0.531163 1.108870 2.149307
v -1.025585 1.126630 -0.497951
v -0.966958 -0.375638 0.360200
v -0.979777 1.171857 -0.509048
v -0.414236 2.138814 0.679174
v -0.191309 2.326381 0.137790
v -0.276849 2.412103 -0.248354
v -0.670334 1.569871 -1.681925
v -0.875010 1.024474 -0.247841
v -0.233790 0.727376 0.640798
v 0.109463 0.286533 1.097542
v -0.077169 -0.796996 1.205285
v -0.498809 1.357686 0.021195
v -0.350769 1.510417 1.592342
v -0.350769 1.510417 1.592342
v -0.841923 0.635748 2.604359
v -1.004101 0.612084 -0.662689
v -0.350769 1.510417 1.592342
v -0.982366 0.615238 -0.630164
v 0.154508 -0.182691 0.563302
v -0.127396 1.147670 0.882259
v -0.869610 0.741267 -0.071835
v 0.053892 0.453621 1.172509
v 0.044080 -0.494049 1.422349
v -0.695462 1.651293 -1.534969
v -0.246710 1.300513 0.516670
v -0.184210 0.817027 0.807986
v 0.157622 2.708148 -1.307515
v -0.098889 1.093481 0.438280
v -1.045348 2.141613 0.082404
v -0.735176 1.834736 -1.269064
v 0.266212 1.642266 1.254411
v -0.225917 1.067631 1.247066
v 0.097679 0.636840 1.584546
v 0.214821 -0.290457 1.979728
v -0.544356 2.185005 0.256838
v -0.219073 1.266599 1.131167
v 0.086281 0.521963 2.028726
v 0.299904 0.170145 2.419705
v -0.838498 1.953655 -0.941137
v -0.348132 1.644777 1.206430
v -0.196700 1.210247 1.860743
v -0.550021 2.097602 0.549739
v -1.012902 1.709422 -0.479144
v -0.644781 1.492762 -1.835475
v -1.397538 -0.114193 0.159040
v -0.478841 0.465921 0.293728
v -0.756279 1.267716 -0.345365
v -0.408155 -0.566899 1.536039
v -0.179466 -0.959404 0.940555
v -0.724201 0.392459 0.131057
v -0.160511 0.333820 0.344333
v 0.381889 -0.526046 0.930780
v -0.065125 1.125512 1.982866
v -0.085412 1.123974 2.121744
v -1.162652 0.206382 2.981587
v -0.158216 0.339056 0.356069
v -0.082019 1.126869 1.887583
v -0.471955 0.809488 1.299406
v -0.055787 0.961000 1.675115
v -0.102926 0.644385 1.001552
v -0.175844 0.900156 1.466550
v -0.033374 1.041771 1.893286
v -0.137174 0.192878 0.468343
v 0.438823 -0.611896 1.022821
v 0.009464 1.028390 2.106812
v -0.035987 1.028050 2.167399
v -0.932773 0.396813 2.904606
v -0.118631 0.211592 0.474240
v 0.020406 0.998630 2.123499
v -0.382429 0.681700 1.369934
v 0.012659 0.855591 1.716221
v 0.005125 0.410265 0.951253
v -0.025881 0.549784 1.089318
v -0.066087 0.769853 1.529675
v 0.295560 -0.410037 2.072798
v 0.030532 0.270569 0.822130
v -0.125240 1.233309 1.922368
v -0.125240 1.233309 1.922368
v -1.307992 0.095219 3.012973
v -0.256181 0.417179 0.246725
v -0.125240 1.233309 1.922368
v -0.381617 0.871055 1.189263
v -0.159887 1.100696 1.491834
v -0.162583 0.735122 0.909567
v -0.186451 1.065193 1.388536
v -0.140891 1.135823 1.744422
v -0.255174 0.414272 0.235565
v 0.325006 -0.440321 0.838899
v -0.647629 0.491958 -0.135240
v 0.211383 -0.268751 0.655307
v -0.280926 1.420506 1.697139
v -0.280926 1.420506 1.697139
v -1.070101 0.387617 2.777228
v -0.674425 0.477806 -0.135893
v -0.280926 1.420506 1.697139
v -0.166941 1.031961 0.960549
v -0.145170 0.869387 0.678451
v -0.230421 1.159425 1.187177
v -0.764162 0.312287 0.093557
v -0.401705 1.582430 1.487781
v -0.401705 1.582430 1.487781
v -0.677177 0.820636 2.469121
v -1.084381 0.892202 -0.971992
v -0.401705 1.582430 1.487781
v -0.129323 1.301782 0.884018
v -0.337917 1.330848 1.554727
v -0.968223 0.919829 -0.302626
v -1.072532 0.889244 -0.963715
v 0.095738 -0.097749 0.471490
v -0.294289 1.136634 0.535020
v -0.152478 1.393920 1.101960
v -1.242226 -0.116396 0.254633
v -1.272445 0.805589 -0.575210
v -0.603981 -0.325070 0.452277
v -0.607628 1.895678 1.082521
v -0.607628 1.895678 1.082521
v -0.542709 1.037671 2.254063
v -1.278082 0.806691 -0.574346
v -0.607628 1.895678 1.082521
v 0.202393 2.377051 0.916935
v -0.439055 1.635095 -1.090388
v -0.713695 1.172859 -0.153157
v 0.315507 1.807755 0.588490
v 0.532931 2.421594 -0.608997
v 0.475804 2.395208 0.950278
v -1.857356 -0.456235 0.174534
v -0.970082 1.070319 -0.818431
v -0.223508 -0.110121 0.384794
v -0.516601 1.775458 1.234067
v -0.516601 1.775458 1.234067
v -0.556237 0.995041 2.310033
v -0.975014 1.078353 -0.825720
v -0.516601 1.775458 1.234067
v 0.828502 2.111324 1.427842
v 0.414681 2.324699 0.836718
v -0.913244 1.065196 -0.339793
v -0.020555 1.512806 0.567851
v 0.570400 2.217827 1.178239
v -0.118460 1.881743 1.105515
v -1.546397 -0.344546 0.239268
v -0.691484 1.981067 0.956051
v -0.691484 1.981067 0.956051
v -0.536344 1.073503 2.200998
v -1.572233 0.548859 -0.316137
v -0.691484 1.981067 0.956051
v 0.242589 2.627433 0.871294
v -1.049501 1.298140 -0.712568
v -0.557325 1.287348 -0.007189
v 0.120763 2.170874 -0.061913
v -0.299917 2.361063 0.091083
v 0.466998 2.641783 -0.809426
v -1.022264 1.082395 -0.472313
v -1.593628 0.524184 -0.311020
v -0.878700 -0.442693 0.460443
v -1.011884 2.215340 0.707291
v -1.011884 2.215340 0.707291
v -0.519261 1.184166 2.047707
v -0.871311 1.466948 -0.547377
v -1.011883 2.215341 0.707291
v -0.670539 2.030946 0.064809
v -0.895548 1.440816 -0.546735
v -1.102165 -0.184374 0.110686
v -0.645827 1.819579 -0.310806
v -0.596316 1.980169 -0.162860
v -0.854980 1.366694 -0.541230
v -1.010524 -0.259242 0.226858
v -0.913801 2.134277 0.798587
v -0.913801 2.134277 0.798587
v -0.525678 1.145399 2.097920
v -0.832030 1.389931 -0.539683
v -0.913801 2.134277 0.798587
v -0.383542 2.157986 0.057695
v -0.606182 1.692396 -0.309437
v -0.246052 2.269124 -0.635711
v -0.661346 2.110997 0.250628
v -0.598776 1.178150 0.001265
vt 0.000100 0.125075
vt 0.000100 0.125075
vt 0.000100 0.000100
vt 0.000100 0.000100
vt 0.000100 0.937413
vt 0.000100 0.999900
vt 0.000100 0.999900
vt 0.000100 0.937413
vt 0.000100 0.999900
vt 0.000100 0.937413
vt 0.000100 0.000100
vt 0.000100 0.000100
vt 0.999900 0.125075
vt 0.999900 0.000100
vt 0.999900 0.000100
vt 0.999900 0.125075
vt 0.993101 0.999900
vt 0.999900 0.999900
vt 0.999900 0.999900
vt 0.993101 0.999900
vt 0.000100 0.000100
vt 0.000100 0.000100
vt 0.000100 0.000100
vt 0.000100 0.000100
vt 0.999900 0.562487
vt 0.999900 0.500000
vt 0.999900 0.500000
vt 0.999900 0.562487
vt 0.000100 0.437513
vt 0.000100 0.500000
vt 0.000100 0.500000
vt 0.000100 0.437513
vt 0.000100 0.437513
vt 0.000100 0.500000
vt 0.000100 0.562488
vt 0.000100 0.562488
vt 0.000100 0.500000
vt 0.993100 0.562487
vt 0.993100 0.500000
vt 0.868976 0.999900
vt 0.868976 0.999900
vt 0.993101 0.000100
vt 0.993101 0.000100
vt 0.999900 0.000100
vt 0.993101 0.125075
vt 0.000100 0.999900
vt 0.000100 0.999900
vt 0.000100 0.999900
vt 0.124225 0.812437
vt 0.000100 0.812438
vt 0.000100 0.749950
vt 0.124225 0.749950
vt 0.999900 0.812437
vt 0.993101 0.812437
vt 0.993101 0.749950
vt 0.999900 0.749950
vt 0.000100 0.812438
vt 0.000100 0.749950
vt 0.999900 0.749950
vt 0.999900 0.812437
vt 0.000100 0.687463
vt 0.000100 0.749950
vt 0.000100 0.749950
vt 0.000100 0.687463
vt 0.000100 0.687463
vt 0.620726 0.812437
vt 0.496600 0.812437
vt 0.496600 0.749950
vt 0.620725 0.749950
vt 0.620725 0.562487
vt 0.496600 0.562487
vt 0.496600 0.500000
vt 0.620725 0.500000
vt 0.372475 0.999900
vt 0.496600 0.999900
vt 0.496600 0.999900
vt 0.372475 0.999900
vt 0.124225 0.999900
vt 0.248350 0.999900
vt 0.248350 0.999900
vt 0.124225 0.999900
vt 0.372475 0.000100
vt 0.248350 0.000100
vt 0.248350 0.000100
vt 0.372475 0.000100
vt 0.372475 0.562487
vt 0.248350 0.562488
vt 0.248350 0.500000
vt 0.372475 0.500000
vt 0.372475 0.312538
vt 0.248350 0.312538
vt 0.248350 0.250050
vt 0.372475 0.250050
vt 0.620725 0.312537
vt 0.496600 0.312537
vt 0.496600 0.250050
vt 0.620725 0.250050
vt 0.124225 0.312538
vt 0.000100 0.312538
vt 0.000100 0.250050
vt 0.124225 0.250050
vt 0.999900 0.312537
vt 0.993100 0.312537
vt 0.993100 0.250050
vt 0.999900 0.250050
vt 0.000100 0.187563
vt 0.000100 0.250050
vt 0.000100 0.250050
vt 0.000100 0.187563
vt 0.000100 0.250050
vt 0.000100 0.187563
vt 0.999900 0.250050
vt 0.999900 0.312537
vt 0.000100 0.312538
vt 0.868975 0.312537
vt 0.744850 0.312537
vt 0.744850 0.250050
vt 0.868975 0.250050
vt 0.868975 0.562487
vt 0.744850 0.562487
vt 0.744850 0.500000
vt 0.868975 0.500000
vt 0.620725 0.999900
vt 0.744851 0.999900
vt 0.744850 0.999900
vt 0.620725 0.999900
vt 0.620725 0.687462
vt 0.496600 0.687462
vt 0.496600 0.624975
vt 0.620725 0.624975
vt 0.000100 0.624975
vt 0.000100 0.624975
vt 0.000100 0.562488
vt 0.000100 0.624975
vt 0.000100 0.562488
vt 0.999900 0.687462
vt 0.993101 0.687462
vt 0.993100 0.624975
vt 0.999900 0.624975
vt 0.000100 0.687463
vt 0.000100 0.624975
vt 0.999900 0.624975
vt 0.999900 0.687462
vt 0.372475 0.687462
vt 0.372475 0.624975
vt 0.496600 0.000100
vt 0.496600 0.000100
vt 0.372475 0.812437
vt 0.372475 0.749950
vt 0.868976 0.687462
vt 0.868975 0.624975
vt 0.868976 0.000100
vt 0.868975 0.000100
vt 0.248350 0.937412
vt 0.124225 0.937413
vt 0.124225 0.874925
vt 0.248350 0.874925
vt 0.496600 0.937412
vt 0.372475 0.937412
vt 0.372475 0.874925
vt 0.496600 0.874925
vt 0.620725 0.937412
vt 0.620725 0.874925
vt 0.999900 0.937412
vt 0.999900 0.874925
vt 0.999900 0.874925
vt 0.999900 0.937412
vt 0.000100 0.928437
vt 0.000100 0.928437
vt 0.000100 0.874925
vt 0.000100 0.874925
vt 0.993101 0.937412
vt 0.993101 0.874925
vt 0.000100 0.937413
vt 0.000100 0.812438
vt 0.000100 0.874925
vt 0.000100 0.874925
vt 0.000100 0.812437
vt 0.999900 0.999900
vt 0.744851 0.937412
vt 0.868976 0.937412
vt 0.248350 0.812438
vt 0.868976 0.749950
vt 0.744850 0.624975
vt 0.993101 0.437512
vt 0.868975 0.437512
vt 0.868975 0.375025
vt 0.993101 0.375025
vt 0.248350 0.437513
vt 0.124225 0.437513
vt 0.124225 0.375025
vt 0.248350 0.375025
vt 0.496600 0.437513
vt 0.372475 0.437513
vt 0.372475 0.375025
vt 0.496600 0.375025
vt 0.744850 0.437512
vt 0.620725 0.437512
vt 0.620725 0.375025
vt 0.744851 0.375025
vt 0.000100 0.437513
vt 0.000100 0.375025
vt 0.000100 0.375025
vt 0.999900 0.437512
vt 0.999900 0.375025
vt 0.999900 0.375025
vt 0.999900 0.437512
vt 0.000100 0.375025
vt 0.000100 0.312538
vt 0.000100 0.375025
vt 0.000100 0.312538
vt 0.124225 0.500000
vt 0.744850 0.187562
vt 0.620725 0.187562
vt 0.620725 0.125075
vt 0.744850 0.125075
vt 0.000100 0.125075
vt 0.000100 0.125075
vt 0.496600 0.187563
vt 0.496600 0.125075
vt 0.999900 0.187562
vt 0.993101 0.187562
vt 0.999900 0.187562
vt 0.000100 0.187563
vt 0.868975 0.187562
vt 0.372475 0.187563
vn -0.6204 0.7411 -0.2567
vn -0.7776 0.2380 -0.5820
vn -0.5380 -0.3194 -0.7801
vn -0.6020 0.7985 0.0000
vn -0.1808 0.2868 0.9408
vn 0.0423 -0.0815 0.9958
vn -0.3370 0.6375 0.6928
vn 0.7790 -0.0104 -0.6269
vn -0.5503 -0.6538 -0.5193
vn 0.0000 0.0000 1.0000
vn 0.5852 0.0544 -0.8090
vn -0.9665 -0.2560 0.0194
vn -0.7580 0.5646 -0.3266
vn 0.3499 -0.1891 0.9175
vn -0.5405 -0.3588 0.7610
vn -0.3588 -0.9330 -0.0270
vn -0.2618 -0.9144 -0.3089
vn -0.8073 -0.1745 0.5637
vn 0.0504 -0.7220 -0.6900
vn -0.2299 -0.7633 -0.6037
vn -0.8752 0.1163 -0.4696
vn -0.7839 0.5689 0.2485
vn -0.9875 -0.0903 0.1293
vn -0.4605 0.5674 0.6826
vn -0.9607 -0.1962 -0.1963
vn -0.5392 0.2801 -0.7943
vn 0.8750 -0.4839 -0.0133
vn -0.4538 -0.8910 -0.0153
vn 0.2006 -0.9580 -0.2049
vn -0.6997 0.7026 0.1290
vn -0.1315 -0.8072 -0.5755
vn 0.1897 -0.4987 -0.8457
vn 0.4818 -0.8727 -0.0792
vn -0.6776 0.6405 0.3615
vn 0.0596 0.3862 0.9205
vn -0.9930 0.1055 0.0536
vn -0.9833 0.1442 -0.1111
vn -0.9377 0.3371 -0.0839
vn 0.5832 -0.6125 -0.5336
vn -0.4777 0.4947 0.7260
vn -0.7511 -0.5932 0.2896
vn -0.9732 0.0247 0.2285
vn -0.7598 0.6036 0.2418
vn -0.7788 0.3365 0.5295
vn -0.9469 0.0229 -0.3208
vn -0.4597 -0.3283 0.8252
vn -0.4620 0.8415 -0.2802
vn -0.9742 -0.1355 -0.1806
vn -0.7478 0.6420 -0.1691
vn -0.6686 -0.1924 -0.7183
vn 0.4910 -0.8106 0.3191
vn -0.3914 -0.8960 -0.2098
vn -0.1424 -0.9348 -0.3254
vn -0.7555 0.5767 -0.3108
vn -0.7592 -0.3675 -0.5372
vn -0.4210 0.5084 0.7512
vn 0.6002 -0.2355 0.7644
vn -0.9692 -0.2463 0.0070
vn -0.4865 0.0751 0.8704
vn -0.7754 -0.3554 0.5220
vn -0.5922 -0.7121 -0.3772
vn -0.4649 -0.6914 -0.5530
vn -0.9018 -0.3800 0.2056
vn -0.7921 0.2960 0.5339
vn -0.9594 -0.2135 0.1841
vn 0.3871 -0.8220 -0.4178
vn -0.8340 -0.5368 -0.1278
vn -0.4269 0.1192 -0.8964
vn -0.6188 0.6751 0.4016
vn -0.1881 -0.5321 -0.8256
vn 0.0123 -0.5817 -0.8133
vn -0.4228 -0.9001 0.1054
vn -0.7321 -0.5369 0.4193
vn -0.8469 0.4866 0.2145
vn -0.8587 -0.4329 0.2741
vn -0.3592 -0.6525 0.6672
vn 0.9864 0.1446 -0.0780
vn -0.7437 0.6195 0.2514
vn 0.2190 -0.8217 -0.5262
vn -0.7075 -0.6649 -0.2394
vn -0.0406 -0.8292 -0.5575
vn -0.0895 -0.6346 -0.7677
vn -0.8490 -0.4908 0.1955
vn -0.6721 0.5985 0.4360
vn -0.9071 0.0192 0.4205
vn -0.7249 -0.4927 -0.4813
vn -0.8622 -0.2648 0.4318
vn -0.8971 -0.4144 0.1532
vn -0.7690 -0.5874 0.2521
vn -0.8360 -0.4489 0.3157
vn 0.3983 -0.8938 -0.2061
vn -0.9777 0.0401 -0.2062
vn -0.7279 -0.0772 0.6814
vn -0.7416 -0.5972 -0.3056
vn 0.3030 -0.8715 -0.3856
vn -0.9496 0.2286 -0.2146
vn -0.8004 -0.1093 -0.5895
vn 0.4396 -0.7555 -0.4858
vn -0.9320 0.1837 -0.3123
vn -0.5791 -0.3128 0.7528
vn 0.4405 0.6767 0.5899
vn -0.3897 0.4706 0.7916
vn -0.5914 -0.7453 0.3079
vn 0.6922 -0.4456 -0.5677
vn 0.0000 -0.4472 -0.8944
vn 0.2209 -0.7059 -0.6730
vn 0.1278 -0.5921 -0.7957
vn -0.7910 0.6101 0.0470
vn 0.3387 0.9362 0.0935
vn -0.6439 0.7104 0.2841
vn 0.7225 -0.2277 0.6528
vn 0.7396 0.6472 0.1849
vn -0.1169 0.6518 0.7494
vn 0.0740 0.6296 0.7734
vn 0.0289 -0.4541 -0.8905
vn -0.8550 0.0111 0.5185
vn 0.5237 -0.8518 -0.0142
vn 0.1294 -0.7950 -0.5926
vn 0.4591 -0.5343 -0.7098
vn -0.7059 0.6663 0.2401
vn -0.4540 -0.4190 -0.7863
vn 0.9512 0.1248 -0.2821
vn 0.1124 0.7764 0.6201
vn 0.7291 0.5978 0.3331
vn -0.5551 0.5069 0.6595
vn -0.7083 0.5888 0.3894
vn 0.1971 0.1233 -0.9726
vn -0.2743 -0.2034 -0.9399
vn 0.0638 -0.6488 -0.7583
vn -0.1235 -0.8025 -0.5837
vn 0.1166 0.8092 0.5758
vn -0.7096 0.4613 0.5326
vn -0.7495 0.5916 0.2972
vn 0.1463 0.9833 -0.1080
vn -0.6711 0.5122 0.5360
vn -0.6720 0.5525 0.4931
vn -0.0633 0.6253 0.7778
vn 0.7699 -0.3869 0.5075
vn 0.3282 -0.9274 -0.1793
vn -0.9862 -0.1252 0.1086
vn -0.5114 0.7577 -0.4054
vn 0.7828 -0.3035 0.5432
vn 0.3214 -0.6814 -0.6576
vn 0.5875 -0.8050 0.0823
vn -0.0709 0.0495 0.9963
vn -0.3230 0.4100 0.8530
vn 0.5762 -0.2205 -0.7870
vn -0.2977 -0.0595 -0.9528
vn 0.0663 -0.4619 -0.8845
vn -0.0690 0.2054 0.9762
vn 0.7144 -0.6997 0.0012
vn -0.1287 -0.0384 0.9909
vn 0.4326 0.4451 0.7841
vn 0.4584 -0.7529 0.4723
vn -0.7339 0.4083 0.5429
vn -0.2100 -0.8090 -0.5490
usemtl Material.001
s off
f 211/1/1 207/2/1 4/3/1 29/4/1
f 117/5/2 2/6/2 5/7/2 118/8/2
f 118/8/3 5/7/3 7/9/3 119/10/3
f 29/4/4 4/3/4 10/11/4 30/12/4
f 213/13/5 3/14/5 12/15/5 214/16/5
f 22/17/6 1/18/6 13/19/6 25/20/6
f 6/21/7 8/22/7 16/23/7 15/24/7
f 160/25/8 17/26/8 21/27/8 161/28/8
f 182/29/9 19/30/9 20/31/9 183/32/9
f 181/33/10 18/34/10 19/30/10 182/29/10
f 156/35/10 152/36/10 18/34/10 31/37/10
f 160/25/11 155/38/11 26/39/11 17/26/11
f 100/40/12 22/17/12 25/20/12 101/41/12
f 3/14/13 23/42/13 24/43/13 9/44/13
f 213/13/14 210/45/14 23/42/14 3/14/14
f 2/6/10 27/46/10 28/47/10 14/48/10
f 138/49/15 133/50/15 38/51/15 93/52/15
f 139/53/16 132/54/16 37/55/16 32/56/16
f 133/50/17 129/57/17 34/58/17 38/51/17
f 139/53/18 32/56/18 33/59/18 140/60/18
f 144/61/19 35/62/19 36/63/19 145/64/19
f 143/65/20 34/58/20 35/62/20 144/61/20
f 136/66/21 134/67/21 44/68/21 78/69/21
f 162/70/22 157/71/22 41/72/22 77/73/22
f 85/74/23 42/75/23 43/76/23 86/77/23
f 89/78/24 45/79/24 46/80/24 90/81/24
f 81/82/25 47/83/25 48/84/25 82/85/25
f 163/86/26 158/87/26 49/88/26 83/89/26
f 202/90/27 199/91/27 58/92/27 87/93/27
f 201/94/28 198/95/28 57/96/28 79/97/28
f 203/98/29 197/99/29 56/100/29 94/101/29
f 205/102/30 196/103/30 55/104/30 53/105/30
f 219/106/10 50/107/10 51/108/10 220/109/10
f 220/109/31 51/108/31 52/110/31 221/111/31
f 205/102/32 53/105/32 54/112/32 206/113/32
f 197/99/33 193/114/33 50/107/33 56/100/33
f 204/115/34 200/116/34 64/117/34 99/118/34
f 164/119/35 159/120/35 60/121/35 97/122/35
f 74/123/36 62/124/36 63/125/36 75/126/36
f 149/127/37 148/128/37 72/129/37 80/130/37
f 152/36/10 65/131/10 66/132/10 153/133/10
f 153/133/38 66/132/38 67/134/38 154/135/38
f 141/136/39 146/137/39 68/138/39 70/139/39
f 147/140/40 143/65/40 65/131/40 69/141/40
f 141/136/41 70/139/41 71/142/41 142/143/41
f 42/75/42 74/123/42 75/126/42 43/76/42
f 200/116/43 201/94/43 79/97/43 64/117/43
f 159/120/44 162/70/44 77/73/44 60/121/44
f 148/128/45 150/144/45 88/145/45 72/129/45
f 198/95/46 202/90/46 87/93/46 57/96/46
f 157/71/47 163/86/47 83/89/47 41/72/47
f 39/146/48 81/82/48 82/85/48 40/147/48
f 134/67/49 137/148/49 84/149/49 44/68/49
f 45/79/50 85/74/50 86/77/50 46/80/50
f 199/91/51 203/98/51 94/101/51 58/92/51
f 27/46/52 89/78/52 90/81/52 28/47/52
f 146/137/53 151/150/53 102/151/53 68/138/53
f 23/42/54 95/152/54 96/153/54 24/43/54
f 155/38/55 164/119/55 97/122/55 26/39/55
f 196/103/56 204/115/56 99/118/56 55/104/56
f 62/124/57 100/40/57 101/41/57 63/125/57
f 123/154/58 127/155/58 114/156/58 111/157/58
f 122/158/59 126/159/59 113/160/59 110/161/59
f 126/159/60 123/154/60 111/157/60 113/160/60
f 125/162/61 122/158/61 110/161/61 112/163/61
f 115/164/62 103/165/62 104/166/62 116/167/62
f 121/168/63 117/169/63 105/170/63 109/171/63
f 115/164/64 120/172/64 108/173/64 103/165/64
f 127/155/65 121/174/65 109/171/65 114/156/65
f 130/175/66 106/176/66 107/177/66 131/178/66
f 129/57/67 105/170/67 106/176/67 130/175/67
f 89/78/68 27/46/68 121/174/68 127/155/68
f 1/18/69 22/17/69 120/172/69 115/164/69
f 27/46/70 2/6/70 117/5/70 121/174/70
f 1/18/71 115/164/71 116/167/71 11/179/71
f 74/123/72 42/75/72 122/158/72 125/162/72
f 85/74/73 45/79/73 123/154/73 126/159/73
f 100/40/74 62/124/74 124/180/74 128/181/74
f 62/124/75 74/123/75 125/162/75 124/180/75
f 42/75/76 85/74/76 126/159/76 122/158/76
f 45/79/77 89/78/77 127/155/77 123/154/77
f 22/17/78 100/40/78 128/181/78 120/172/78
f 106/176/79 118/8/79 119/10/79 107/177/79
f 105/170/80 117/5/80 118/8/80 106/176/80
f 34/58/81 129/57/81 130/175/81 35/62/81
f 35/62/82 130/175/82 131/178/82 36/63/82
f 111/157/83 114/156/83 138/49/83 135/182/83
f 110/161/84 113/160/84 137/148/84 134/67/84
f 113/160/85 111/157/85 135/182/85 137/148/85
f 112/163/86 110/161/86 134/67/86 136/66/86
f 103/165/87 139/53/87 140/60/87 104/166/87
f 109/171/88 105/170/88 129/57/88 133/50/88
f 103/165/89 108/173/89 132/54/89 139/53/89
f 114/156/90 109/171/90 133/50/90 138/49/90
f 37/55/91 98/183/91 151/150/91 146/137/91
f 44/68/92 84/149/92 150/144/92 148/128/92
f 32/56/93 141/136/93 142/143/93 33/59/93
f 38/51/94 34/58/94 143/65/94 147/140/94
f 32/56/95 37/55/95 146/137/95 141/136/95
f 78/69/96 44/68/96 148/128/96 149/127/96
f 65/131/10 143/65/10 144/61/10 66/132/10
f 66/132/97 144/61/97 145/64/97 67/134/97
f 68/138/98 102/151/98 164/119/98 155/38/98
f 72/129/99 88/145/99 163/86/99 157/71/99
f 73/184/100 80/130/100 162/70/100 159/120/100
f 19/30/101 153/133/101 154/135/101 20/31/101
f 18/34/10 152/36/10 153/133/10 19/30/10
f 102/151/102 73/184/102 159/120/102 164/119/102
f 80/130/103 72/129/103 157/71/103 162/70/103
f 70/139/104 68/138/104 155/38/104 160/25/104
f 69/141/105 65/131/105 152/36/105 156/35/105
f 70/139/106 160/25/106 161/28/106 71/142/106
f 184/185/107 192/186/107 178/187/107 170/188/107
f 187/189/108 191/190/108 177/191/108 173/192/108
f 186/193/109 190/194/109 176/195/109 172/196/109
f 188/197/110 189/198/110 175/199/110 174/200/110
f 192/186/111 188/197/111 174/200/111 178/187/111
f 185/201/112 181/33/112 167/202/112 171/203/112
f 179/204/113 165/205/113 166/206/113 180/207/113
f 179/204/114 184/185/114 170/188/114 165/205/114
f 191/190/115 185/201/115 171/203/115 177/191/115
f 189/198/116 186/193/116 172/196/116 175/199/116
f 190/194/117 187/189/117 173/192/117 176/195/117
f 193/114/10 167/202/10 168/208/10 194/209/10
f 194/209/118 168/208/118 169/210/118 195/211/118
f 83/89/119 49/88/119 187/189/119 190/194/119
f 77/73/120 41/72/120 186/193/120 189/198/120
f 92/212/121 31/37/121 185/201/121 191/190/121
f 17/26/122 26/39/122 184/185/122 179/204/122
f 17/26/123 179/204/123 180/207/123 21/27/123
f 31/37/124 18/34/124 181/33/124 185/201/124
f 97/122/125 60/121/125 188/197/125 192/186/125
f 60/121/126 77/73/126 189/198/126 188/197/126
f 41/72/127 83/89/127 190/194/127 186/193/127
f 49/88/128 92/212/128 191/190/128 187/189/128
f 26/39/129 97/122/129 192/186/129 184/185/129
f 167/202/10 181/33/10 182/29/10 168/208/10
f 168/208/130 182/29/130 183/32/130 169/210/130
f 51/108/131 194/209/131 195/211/131 52/110/131
f 50/107/10 193/114/10 194/209/10 51/108/10
f 170/188/132 178/187/132 204/115/132 196/103/132
f 173/192/133 177/191/133 203/98/133 199/91/133
f 172/196/134 176/195/134 202/90/134 198/95/134
f 174/200/135 175/199/135 201/94/135 200/116/135
f 178/187/136 174/200/136 200/116/136 204/115/136
f 171/203/10 167/202/10 193/114/10 197/99/10
f 165/205/137 205/102/137 206/113/137 166/206/137
f 165/205/138 170/188/138 196/103/138 205/102/138
f 177/191/139 171/203/139 197/99/139 203/98/139
f 175/199/140 172/196/140 198/95/140 201/94/140
f 176/195/141 173/192/141 199/91/141 202/90/141
f 225/213/142 226/214/142 216/215/142 215/216/142
f 6/21/143 208/217/143 209/218/143 8/22/143
f 4/3/10 207/2/10 208/217/10 6/21/10
f 226/214/144 224/219/144 212/220/144 216/215/144
f 217/221/145 222/222/145 210/45/145 213/13/145
f 217/221/146 213/13/146 214/16/146 218/223/146
f 223/224/147 219/106/147 207/2/147 211/1/147
f 56/100/148 50/107/148 219/106/148 223/224/148
f 53/105/149 217/221/149 218/223/149 54/112/149
f 53/105/150 55/104/150 222/222/150 217/221/150
f 79/97/151 57/96/151 224/219/151 226/214/151
f 99/118/152 64/117/152 225/213/152 228/225/152
f 64/117/153 79/97/153 226/214/153 225/213/153
f 57/96/154 87/93/154 227/226/154 224/219/154
f 55/104/155 99/118/155 228/225/155 222/222/155
f 208/217/156 220/109/156 221/111/156 209/218/156
f 207/2/10 219/106/10 220/109/10 208/217/10
l 212 39
l 91 48
l 76 59
l 78 61
l 40 76
l 30 91
l 59 96
l 61 98
